<mxfile host="Electron" agent="Mozilla/5.0 (Windows NT 10.0; Win64; x64) AppleWebKit/537.36 (KHTML, like Gecko) draw.io/27.0.9 Chrome/134.0.6998.205 Electron/35.4.0 Safari/537.36" version="27.0.9">
  <diagram name="Page-1" id="I-pt9Av2_aDahlnVpOj2">
    <mxGraphModel dx="1310" dy="860" grid="1" gridSize="10" guides="1" tooltips="1" connect="1" arrows="1" fold="1" page="1" pageScale="1" pageWidth="850" pageHeight="1100" math="0" shadow="0">
      <root>
        <mxCell id="0" />
        <mxCell id="1" parent="0" />
        <mxCell id="CatL-ISoqCH31tLuqbRx-6" value="&lt;h1 style=&quot;margin-top: 0px;&quot;&gt;&lt;font style=&quot;font-size: 20px;&quot; face=&quot;Times New Roman&quot;&gt;&lt;u&gt;Hierarchy Chart for&amp;nbsp;&lt;strong style=&quot;background-color: transparent; color: light-dark(rgb(0, 0, 0), rgb(255, 255, 255));&quot; data-end=&quot;209&quot; data-start=&quot;191&quot;&gt;projected cost&lt;/strong&gt;&lt;span style=&quot;background-color: transparent; color: light-dark(rgb(0, 0, 0), rgb(255, 255, 255));&quot;&gt; of a remodeling job&lt;/span&gt;&lt;/u&gt;&lt;/font&gt;&lt;/h1&gt;&lt;p&gt;&lt;br&gt;&lt;/p&gt;" style="text;html=1;whiteSpace=wrap;overflow=hidden;rounded=0;align=center;labelBackgroundColor=none;fontColor=#143642;" vertex="1" parent="1">
          <mxGeometry x="310" width="280" height="120" as="geometry" />
        </mxCell>
        <mxCell id="CatL-ISoqCH31tLuqbRx-9" value="Z" style="group;labelBackgroundColor=none;fontColor=#143642;fontStyle=1" vertex="1" connectable="0" parent="1">
          <mxGeometry x="200" y="80" width="500" height="200" as="geometry" />
        </mxCell>
        <mxCell id="CatL-ISoqCH31tLuqbRx-1" value="EndOfJob&#xa;(Displays a message: End of program)" style="rounded=0;whiteSpace=wrap;fillColor=#FAE5C7;strokeColor=#0F8B8D;strokeWidth=2;shadow=1;labelBackgroundColor=none;fontColor=#143642;fontStyle=1" vertex="1" parent="CatL-ISoqCH31tLuqbRx-9">
          <mxGeometry x="330" y="120" width="170" height="80" as="geometry" />
        </mxCell>
        <mxCell id="CatL-ISoqCH31tLuqbRx-2" value=" InputAndCalc &#xa;(Asks user for hours and material cost, Calculates total cost,Displays result)" style="rounded=0;whiteSpace=wrap;fillColor=#FAE5C7;strokeColor=#0F8B8D;strokeWidth=2;shadow=1;labelBackgroundColor=none;fontColor=#143642;fontStyle=1" vertex="1" parent="CatL-ISoqCH31tLuqbRx-9">
          <mxGeometry x="-30" y="120" width="170" height="80" as="geometry" />
        </mxCell>
        <mxCell id="CatL-ISoqCH31tLuqbRx-4" value="" style="edgeStyle=orthogonalEdgeStyle;rounded=0;orthogonalLoop=1;jettySize=auto;exitX=0.5;exitY=1;exitDx=0;exitDy=0;entryX=0.5;entryY=0;entryDx=0;entryDy=0;strokeColor=#A8201A;strokeWidth=2;shadow=1;labelBackgroundColor=none;fontColor=default;fontStyle=1" edge="1" parent="CatL-ISoqCH31tLuqbRx-9" source="CatL-ISoqCH31tLuqbRx-3" target="CatL-ISoqCH31tLuqbRx-2">
          <mxGeometry relative="1" as="geometry" />
        </mxCell>
        <mxCell id="CatL-ISoqCH31tLuqbRx-5" value="" style="edgeStyle=orthogonalEdgeStyle;rounded=0;orthogonalLoop=1;jettySize=auto;exitX=0.5;exitY=1;exitDx=0;exitDy=0;strokeColor=#A8201A;strokeWidth=2;shadow=1;labelBackgroundColor=none;fontColor=default;fontStyle=1" edge="1" parent="CatL-ISoqCH31tLuqbRx-9" source="CatL-ISoqCH31tLuqbRx-3" target="CatL-ISoqCH31tLuqbRx-1">
          <mxGeometry relative="1" as="geometry" />
        </mxCell>
        <mxCell id="CatL-ISoqCH31tLuqbRx-3" value="Main&#xa;(Calls other modules and controls the loop)" style="rounded=0;whiteSpace=wrap;fillColor=#FAE5C7;strokeColor=#0F8B8D;strokeWidth=2;shadow=1;labelBackgroundColor=none;fontColor=#143642;fontStyle=1" vertex="1" parent="CatL-ISoqCH31tLuqbRx-9">
          <mxGeometry x="170" width="120" height="60" as="geometry" />
        </mxCell>
        <mxCell id="CatL-ISoqCH31tLuqbRx-10" value="&lt;h2 style=&quot;color: rgb(0, 0, 0); text-align: center;&quot;&gt;&lt;font style=&quot;font-size: 20px;&quot; face=&quot;Times New Roman&quot;&gt;&lt;u&gt;Flowchart for Exercise 2&lt;/u&gt;&lt;/font&gt;&lt;/h2&gt;" style="text;html=1;whiteSpace=wrap;overflow=hidden;rounded=0;fontColor=#143642;" vertex="1" parent="1">
          <mxGeometry x="360" y="290" width="180" height="120" as="geometry" />
        </mxCell>
        <mxCell id="CatL-ISoqCH31tLuqbRx-70" value="" style="group;strokeWidth=3;shadow=1;rounded=0;fontStyle=1;textShadow=0;fillColor=default;fontColor=default;labelBorderColor=none;" vertex="1" connectable="0" parent="1">
          <mxGeometry x="20" y="390" width="800" height="640" as="geometry" />
        </mxCell>
        <mxCell id="CatL-ISoqCH31tLuqbRx-66" style="edgeStyle=orthogonalEdgeStyle;rounded=0;orthogonalLoop=1;jettySize=auto;html=1;exitX=1;exitY=0.5;exitDx=0;exitDy=0;entryX=0;entryY=0.5;entryDx=0;entryDy=0;strokeColor=#A8201A;fontColor=default;fillColor=#FAE5C7;fontStyle=1;textShadow=0;labelBorderColor=none;strokeWidth=3;" edge="1" parent="CatL-ISoqCH31tLuqbRx-70" source="CatL-ISoqCH31tLuqbRx-11" target="CatL-ISoqCH31tLuqbRx-14">
          <mxGeometry relative="1" as="geometry" />
        </mxCell>
        <mxCell id="CatL-ISoqCH31tLuqbRx-11" value="Start" style="ellipse;whiteSpace=wrap;html=1;strokeColor=#0F8B8D;fontColor=default;fillColor=#FAE5C7;fontStyle=1;textShadow=0;labelBorderColor=none;strokeWidth=3;" vertex="1" parent="CatL-ISoqCH31tLuqbRx-70">
          <mxGeometry width="120" height="80" as="geometry" />
        </mxCell>
        <mxCell id="CatL-ISoqCH31tLuqbRx-42" style="edgeStyle=orthogonalEdgeStyle;rounded=0;orthogonalLoop=1;jettySize=auto;html=1;exitX=1;exitY=0.5;exitDx=0;exitDy=0;entryX=0;entryY=0.5;entryDx=0;entryDy=0;strokeColor=#A8201A;fontColor=default;fillColor=#FAE5C7;fontStyle=1;textShadow=0;labelBorderColor=none;strokeWidth=3;" edge="1" parent="CatL-ISoqCH31tLuqbRx-70" source="CatL-ISoqCH31tLuqbRx-14" target="CatL-ISoqCH31tLuqbRx-15">
          <mxGeometry relative="1" as="geometry" />
        </mxCell>
        <mxCell id="CatL-ISoqCH31tLuqbRx-14" value="&amp;nbsp;“Enter number of hours (0 to quit)" style="rounded=0;whiteSpace=wrap;html=1;strokeColor=#0F8B8D;fontColor=default;fillColor=#FAE5C7;fontStyle=1;textShadow=0;labelBorderColor=none;strokeWidth=3;" vertex="1" parent="CatL-ISoqCH31tLuqbRx-70">
          <mxGeometry x="150" y="10" width="120" height="60" as="geometry" />
        </mxCell>
        <mxCell id="CatL-ISoqCH31tLuqbRx-48" style="edgeStyle=orthogonalEdgeStyle;rounded=0;orthogonalLoop=1;jettySize=auto;html=1;exitX=0.5;exitY=1;exitDx=0;exitDy=0;entryX=0.5;entryY=0;entryDx=0;entryDy=0;strokeColor=#A8201A;fontColor=default;fillColor=#FAE5C7;fontStyle=1;textShadow=0;labelBorderColor=none;strokeWidth=3;" edge="1" parent="CatL-ISoqCH31tLuqbRx-70" source="CatL-ISoqCH31tLuqbRx-15" target="CatL-ISoqCH31tLuqbRx-16">
          <mxGeometry relative="1" as="geometry" />
        </mxCell>
        <mxCell id="CatL-ISoqCH31tLuqbRx-67" style="edgeStyle=orthogonalEdgeStyle;rounded=0;orthogonalLoop=1;jettySize=auto;html=1;exitX=1;exitY=0.5;exitDx=0;exitDy=0;entryX=0;entryY=0.5;entryDx=0;entryDy=0;strokeColor=#A8201A;fontColor=default;fillColor=#FAE5C7;fontStyle=1;textShadow=0;labelBorderColor=none;strokeWidth=3;" edge="1" parent="CatL-ISoqCH31tLuqbRx-70" source="CatL-ISoqCH31tLuqbRx-15" target="CatL-ISoqCH31tLuqbRx-20">
          <mxGeometry relative="1" as="geometry" />
        </mxCell>
        <mxCell id="CatL-ISoqCH31tLuqbRx-15" value="hours" style="shape=parallelogram;perimeter=parallelogramPerimeter;whiteSpace=wrap;html=1;fixedSize=1;strokeColor=#0F8B8D;fontColor=default;fillColor=#FAE5C7;fontStyle=1;textShadow=0;labelBorderColor=none;strokeWidth=3;" vertex="1" parent="CatL-ISoqCH31tLuqbRx-70">
          <mxGeometry x="290" y="10" width="120" height="60" as="geometry" />
        </mxCell>
        <mxCell id="CatL-ISoqCH31tLuqbRx-49" style="edgeStyle=orthogonalEdgeStyle;rounded=0;orthogonalLoop=1;jettySize=auto;html=1;exitX=1;exitY=0.5;exitDx=0;exitDy=0;entryX=0;entryY=0.5;entryDx=0;entryDy=0;strokeColor=#A8201A;fontColor=default;fillColor=#FAE5C7;fontStyle=1;textShadow=0;labelBorderColor=none;strokeWidth=3;" edge="1" parent="CatL-ISoqCH31tLuqbRx-70" source="CatL-ISoqCH31tLuqbRx-16" target="CatL-ISoqCH31tLuqbRx-21">
          <mxGeometry relative="1" as="geometry" />
        </mxCell>
        <mxCell id="CatL-ISoqCH31tLuqbRx-16" value="Else:" style="rounded=0;whiteSpace=wrap;html=1;strokeColor=#0F8B8D;fontColor=default;fillColor=#FAE5C7;fontStyle=1;textShadow=0;labelBorderColor=none;strokeWidth=3;" vertex="1" parent="CatL-ISoqCH31tLuqbRx-70">
          <mxGeometry x="10" y="130" width="120" height="60" as="geometry" />
        </mxCell>
        <mxCell id="CatL-ISoqCH31tLuqbRx-51" style="edgeStyle=orthogonalEdgeStyle;rounded=0;orthogonalLoop=1;jettySize=auto;html=1;exitX=0.5;exitY=1;exitDx=0;exitDy=0;entryX=0.5;entryY=0;entryDx=0;entryDy=0;strokeColor=#A8201A;fontColor=default;fillColor=#FAE5C7;fontStyle=1;textShadow=0;labelBorderColor=none;strokeWidth=3;" edge="1" parent="CatL-ISoqCH31tLuqbRx-70" source="CatL-ISoqCH31tLuqbRx-19" target="CatL-ISoqCH31tLuqbRx-31">
          <mxGeometry relative="1" as="geometry" />
        </mxCell>
        <mxCell id="CatL-ISoqCH31tLuqbRx-19" value="MaterialCost" style="shape=parallelogram;perimeter=parallelogramPerimeter;whiteSpace=wrap;html=1;fixedSize=1;strokeColor=#0F8B8D;fontColor=default;fillColor=#FAE5C7;fontStyle=1;textShadow=0;labelBorderColor=none;strokeWidth=3;" vertex="1" parent="CatL-ISoqCH31tLuqbRx-70">
          <mxGeometry x="200" y="220" width="120" height="60" as="geometry" />
        </mxCell>
        <mxCell id="CatL-ISoqCH31tLuqbRx-44" style="edgeStyle=orthogonalEdgeStyle;rounded=0;orthogonalLoop=1;jettySize=auto;html=1;exitX=1;exitY=0.5;exitDx=0;exitDy=0;entryX=0;entryY=0.5;entryDx=0;entryDy=0;strokeColor=#A8201A;fontColor=default;fillColor=#FAE5C7;fontStyle=1;textShadow=0;labelBorderColor=none;strokeWidth=3;" edge="1" parent="CatL-ISoqCH31tLuqbRx-70" source="CatL-ISoqCH31tLuqbRx-20" target="CatL-ISoqCH31tLuqbRx-24">
          <mxGeometry relative="1" as="geometry" />
        </mxCell>
        <mxCell id="CatL-ISoqCH31tLuqbRx-20" value="&lt;code data-end=&quot;1518&quot; data-start=&quot;1506&quot;&gt;hours == 0&lt;/code&gt;,&lt;div&gt;&amp;nbsp;go to End&lt;/div&gt;" style="shape=parallelogram;perimeter=parallelogramPerimeter;whiteSpace=wrap;html=1;fixedSize=1;strokeColor=#0F8B8D;fontColor=default;fillColor=#FAE5C7;fontStyle=1;textShadow=0;labelBorderColor=none;strokeWidth=3;" vertex="1" parent="CatL-ISoqCH31tLuqbRx-70">
          <mxGeometry x="420" y="10" width="120" height="60" as="geometry" />
        </mxCell>
        <mxCell id="CatL-ISoqCH31tLuqbRx-50" style="edgeStyle=orthogonalEdgeStyle;rounded=0;orthogonalLoop=1;jettySize=auto;html=1;exitX=0.5;exitY=1;exitDx=0;exitDy=0;entryX=0.5;entryY=0;entryDx=0;entryDy=0;strokeColor=#A8201A;fontColor=default;fillColor=#FAE5C7;fontStyle=1;textShadow=0;labelBorderColor=none;strokeWidth=3;" edge="1" parent="CatL-ISoqCH31tLuqbRx-70" source="CatL-ISoqCH31tLuqbRx-21" target="CatL-ISoqCH31tLuqbRx-19">
          <mxGeometry relative="1" as="geometry" />
        </mxCell>
        <mxCell id="CatL-ISoqCH31tLuqbRx-21" value="Enter wholesale&lt;div&gt;cost of materials&lt;/div&gt;" style="shape=parallelogram;perimeter=parallelogramPerimeter;whiteSpace=wrap;html=1;fixedSize=1;strokeColor=#0F8B8D;fontColor=default;fillColor=#FAE5C7;fontStyle=1;textShadow=0;labelBorderColor=none;strokeWidth=3;" vertex="1" parent="CatL-ISoqCH31tLuqbRx-70">
          <mxGeometry x="200" y="130" width="120" height="60" as="geometry" />
        </mxCell>
        <mxCell id="CatL-ISoqCH31tLuqbRx-45" style="edgeStyle=orthogonalEdgeStyle;rounded=0;orthogonalLoop=1;jettySize=auto;html=1;exitX=1;exitY=0.5;exitDx=0;exitDy=0;strokeColor=#A8201A;fontColor=default;fillColor=#FAE5C7;fontStyle=1;textShadow=0;labelBorderColor=none;strokeWidth=3;" edge="1" parent="CatL-ISoqCH31tLuqbRx-70" source="CatL-ISoqCH31tLuqbRx-24" target="CatL-ISoqCH31tLuqbRx-25">
          <mxGeometry relative="1" as="geometry" />
        </mxCell>
        <mxCell id="CatL-ISoqCH31tLuqbRx-24" value="&lt;span style=&quot;font-family: monospace;&quot;&gt;Call EndOfJob&lt;/span&gt;" style="shape=parallelogram;perimeter=parallelogramPerimeter;whiteSpace=wrap;html=1;fixedSize=1;strokeColor=#0F8B8D;fontColor=default;fillColor=#FAE5C7;fontStyle=1;textShadow=0;labelBorderColor=none;strokeWidth=3;" vertex="1" parent="CatL-ISoqCH31tLuqbRx-70">
          <mxGeometry x="550" y="10" width="120" height="60" as="geometry" />
        </mxCell>
        <mxCell id="CatL-ISoqCH31tLuqbRx-46" style="edgeStyle=orthogonalEdgeStyle;rounded=0;orthogonalLoop=1;jettySize=auto;html=1;exitX=0.5;exitY=1;exitDx=0;exitDy=0;strokeColor=#A8201A;fontColor=default;fillColor=#FAE5C7;fontStyle=1;textShadow=0;labelBorderColor=none;strokeWidth=3;" edge="1" parent="CatL-ISoqCH31tLuqbRx-70" source="CatL-ISoqCH31tLuqbRx-25">
          <mxGeometry relative="1" as="geometry">
            <mxPoint x="740" y="110" as="targetPoint" />
          </mxGeometry>
        </mxCell>
        <mxCell id="CatL-ISoqCH31tLuqbRx-25" value="Display&amp;nbsp;&lt;div&gt;message&lt;/div&gt;" style="shape=parallelogram;perimeter=parallelogramPerimeter;whiteSpace=wrap;html=1;fixedSize=1;strokeColor=#0F8B8D;fontColor=default;fillColor=#FAE5C7;fontStyle=1;textShadow=0;labelBorderColor=none;strokeWidth=3;" vertex="1" parent="CatL-ISoqCH31tLuqbRx-70">
          <mxGeometry x="680" y="10" width="120" height="60" as="geometry" />
        </mxCell>
        <mxCell id="CatL-ISoqCH31tLuqbRx-27" value="END" style="ellipse;whiteSpace=wrap;html=1;strokeColor=#0F8B8D;fontColor=default;fillColor=#FAE5C7;fontStyle=1;textShadow=0;labelBorderColor=none;strokeWidth=3;" vertex="1" parent="CatL-ISoqCH31tLuqbRx-70">
          <mxGeometry x="670" y="560" width="120" height="80" as="geometry" />
        </mxCell>
        <mxCell id="CatL-ISoqCH31tLuqbRx-60" style="edgeStyle=orthogonalEdgeStyle;rounded=0;orthogonalLoop=1;jettySize=auto;html=1;exitX=0.5;exitY=1;exitDx=0;exitDy=0;entryX=0.5;entryY=0;entryDx=0;entryDy=0;strokeColor=#A8201A;fontColor=default;fillColor=#FAE5C7;fontStyle=1;textShadow=0;labelBorderColor=none;strokeWidth=3;" edge="1" parent="CatL-ISoqCH31tLuqbRx-70" source="CatL-ISoqCH31tLuqbRx-30" target="CatL-ISoqCH31tLuqbRx-32">
          <mxGeometry relative="1" as="geometry" />
        </mxCell>
        <mxCell id="CatL-ISoqCH31tLuqbRx-30" value="&lt;br&gt;&lt;br&gt;&lt;div&gt;totalCost = (hours * 30) + markup&lt;br&gt;&lt;br&gt;&lt;/div&gt;" style="rounded=1;whiteSpace=wrap;html=1;strokeColor=#0F8B8D;fontColor=default;fillColor=#FAE5C7;fontStyle=1;textShadow=0;labelBorderColor=none;strokeWidth=3;" vertex="1" parent="CatL-ISoqCH31tLuqbRx-70">
          <mxGeometry x="200" y="410" width="120" height="60" as="geometry" />
        </mxCell>
        <mxCell id="CatL-ISoqCH31tLuqbRx-52" style="edgeStyle=orthogonalEdgeStyle;rounded=0;orthogonalLoop=1;jettySize=auto;html=1;exitX=0.5;exitY=1;exitDx=0;exitDy=0;entryX=0.5;entryY=0;entryDx=0;entryDy=0;strokeColor=#A8201A;fontColor=default;fillColor=#FAE5C7;fontStyle=1;textShadow=0;labelBorderColor=none;strokeWidth=3;" edge="1" parent="CatL-ISoqCH31tLuqbRx-70" source="CatL-ISoqCH31tLuqbRx-31" target="CatL-ISoqCH31tLuqbRx-30">
          <mxGeometry relative="1" as="geometry" />
        </mxCell>
        <mxCell id="CatL-ISoqCH31tLuqbRx-31" value="markup = materialCost * 1.2" style="rounded=1;whiteSpace=wrap;html=1;strokeColor=#0F8B8D;fontColor=default;fillColor=#FAE5C7;fontStyle=1;textShadow=0;labelBorderColor=none;strokeWidth=3;" vertex="1" parent="CatL-ISoqCH31tLuqbRx-70">
          <mxGeometry x="200" y="310" width="120" height="60" as="geometry" />
        </mxCell>
        <mxCell id="CatL-ISoqCH31tLuqbRx-62" style="edgeStyle=orthogonalEdgeStyle;rounded=0;orthogonalLoop=1;jettySize=auto;html=1;exitX=1;exitY=0.5;exitDx=0;exitDy=0;strokeColor=#A8201A;fontColor=default;fillColor=#FAE5C7;fontStyle=1;textShadow=0;labelBorderColor=none;strokeWidth=3;" edge="1" parent="CatL-ISoqCH31tLuqbRx-70" source="CatL-ISoqCH31tLuqbRx-32">
          <mxGeometry relative="1" as="geometry">
            <mxPoint x="370" y="80" as="targetPoint" />
          </mxGeometry>
        </mxCell>
        <mxCell id="CatL-ISoqCH31tLuqbRx-32" value="totalCost" style="shape=parallelogram;perimeter=parallelogramPerimeter;whiteSpace=wrap;html=1;fixedSize=1;strokeColor=#0F8B8D;fontColor=default;fillColor=#FAE5C7;fontStyle=1;textShadow=0;labelBorderColor=none;strokeWidth=3;" vertex="1" parent="CatL-ISoqCH31tLuqbRx-70">
          <mxGeometry x="200" y="500" width="120" height="60" as="geometry" />
        </mxCell>
        <mxCell id="CatL-ISoqCH31tLuqbRx-47" style="edgeStyle=orthogonalEdgeStyle;rounded=0;orthogonalLoop=1;jettySize=auto;html=1;exitX=0.5;exitY=1;exitDx=0;exitDy=0;strokeColor=#A8201A;fontColor=default;fillColor=#FAE5C7;fontStyle=1;textShadow=0;labelBorderColor=none;strokeWidth=3;" edge="1" parent="CatL-ISoqCH31tLuqbRx-70" source="CatL-ISoqCH31tLuqbRx-33">
          <mxGeometry relative="1" as="geometry">
            <mxPoint x="730" y="550" as="targetPoint" />
          </mxGeometry>
        </mxCell>
        <mxCell id="CatL-ISoqCH31tLuqbRx-33" value="End of program" style="shape=parallelogram;perimeter=parallelogramPerimeter;whiteSpace=wrap;html=1;fixedSize=1;strokeColor=#0F8B8D;fontColor=default;fillColor=#FAE5C7;fontStyle=1;textShadow=0;labelBorderColor=none;strokeWidth=3;" vertex="1" parent="CatL-ISoqCH31tLuqbRx-70">
          <mxGeometry x="670" y="120" width="120" height="60" as="geometry" />
        </mxCell>
        <mxCell id="CatL-ISoqCH31tLuqbRx-35" style="edgeStyle=orthogonalEdgeStyle;rounded=0;orthogonalLoop=1;jettySize=auto;html=1;exitX=0.5;exitY=1;exitDx=0;exitDy=0;strokeColor=#A8201A;fontColor=default;fillColor=#FAE5C7;fontStyle=1;textShadow=0;labelBorderColor=none;strokeWidth=3;" edge="1" parent="CatL-ISoqCH31tLuqbRx-70" source="CatL-ISoqCH31tLuqbRx-30" target="CatL-ISoqCH31tLuqbRx-30">
          <mxGeometry relative="1" as="geometry" />
        </mxCell>
        <mxCell id="CatL-ISoqCH31tLuqbRx-71" style="edgeStyle=orthogonalEdgeStyle;rounded=0;orthogonalLoop=1;jettySize=auto;html=1;exitX=1;exitY=1;exitDx=0;exitDy=0;entryX=0.074;entryY=0.009;entryDx=0;entryDy=0;entryPerimeter=0;strokeColor=#A8201A;fontColor=#143642;fillColor=#FAE5C7;" edge="1" parent="1" source="CatL-ISoqCH31tLuqbRx-2" target="CatL-ISoqCH31tLuqbRx-10">
          <mxGeometry relative="1" as="geometry" />
        </mxCell>
      </root>
    </mxGraphModel>
  </diagram>
</mxfile>
